<svg xmlns="http://www.w3.org/2000/svg" version="1.1" viewBox="0 0 2100 2000">
  <defs fill="#000000">
    <style>
      .cls-1 {
        fill: #e1eaed;
      }

      .cls-2 {
        fill: #f2f8ff;
      }

      .cls-3 {
        fill: #b7cccc;
      }

      .cls-4 {
        fill: #e0e0e0;
      }
    </style>
  </defs>
  <!-- Generator: Adobe Illustrator 28.6.0, SVG Export Plug-In . SVG Version: 1.2.0 Build 709)  -->
  <g>
    <g id="Icons">
      <g>
        <polygon class="cls-1" points="500 200 400 200 400 300 300 300 300 400 200 400 200 500 100 500 100 600 0 600 0 700 600 700 600 100 500 100 500 200" fill="#000000"/>
        <polygon class="cls-1" points="700 0 700 700 1500 700 1500 600 1600 600 1600 500 1700 500 1700 400 1800 400 1800 300 1900 300 1900 200 2000 200 2000 100 2100 100 2100 0 700 0" fill="#000000"/>
        <rect class="cls-4" y="1900" width="100" height="100" fill="#000000"/>
        <rect class="cls-4" x="100" y="1800" width="100" height="100" fill="#000000"/>
        <rect class="cls-4" x="200" y="1700" width="100" height="100" fill="#000000"/>
        <rect class="cls-4" x="300" y="1600" width="100" height="100" fill="#000000"/>
        <polygon class="cls-4" points="1500 1900 1600 1900 1600 1800 1700 1800 1700 1700 1800 1700 1800 1600 1900 1600 1900 1500 2000 1500 2000 1400 1500 1400 1500 1900" fill="#000000"/>
        <rect class="cls-4" x="400" y="1500" width="100" height="100" fill="#000000"/>
        <rect class="cls-4" x="500" y="1400" width="100" height="100" fill="#000000"/>
        <polygon class="cls-4" points="700 1300 700 700 600 700 600 1400 1500 1400 1500 1300 700 1300" fill="#000000"/>
        <polygon class="cls-4" points="2000 200 1900 200 1900 300 1800 300 1800 400 1700 400 1700 500 1600 500 1600 600 1500 600 1500 1300 2100 1300 2100 100 2000 100 2000 200" fill="#000000"/>
        <rect class="cls-3" x="1500" y="1300" width="600" height="100" fill="#000000"/>
        <polygon class="cls-2" points="100 1800 200 1800 200 1700 300 1700 300 1600 400 1600 400 1500 500 1500 500 1400 600 1400 600 700 0 700 0 1900 100 1900 100 1800" fill="#000000"/>
        <polygon class="cls-2" points="500 1500 500 1600 400 1600 400 1700 300 1700 300 1800 200 1800 200 1900 100 1900 100 2000 1500 2000 1500 1400 600 1400 600 1500 500 1500" fill="#000000"/>
        <rect class="cls-2" x="700" y="700" width="800" height="600" fill="#000000"/>
        <rect class="cls-2" x="600" width="100" height="700" fill="#000000"/>
      </g>
    </g>
  </g>
</svg>